<svg width="200" height="38" viewBox="0 0 200 38" fill="none" xmlns="http://www.w3.org/2000/svg">
<path d="M71.7 10.45L67.125 28H61.95L59.15 16.45L56.25 28H51.075L46.625 10.45H51.2L53.725 23.225L56.85 10.45H61.55L64.55 23.225L67.1 10.45H71.7ZM82.4189 13.9C84.0189 13.9 85.3023 14.4333 86.2689 15.5C87.2356 16.55 87.7189 18 87.7189 19.85V28H83.4689V20.425C83.4689 19.4917 83.2273 18.7667 82.7439 18.25C82.2606 17.7333 81.6106 17.475 80.7939 17.475C79.9773 17.475 79.3273 17.7333 78.8439 18.25C78.3606 18.7667 78.1189 19.4917 78.1189 20.425V28H73.8439V9.5H78.1189V15.925C78.5523 15.3083 79.1439 14.8167 79.8939 14.45C80.6439 14.0833 81.4856 13.9 82.4189 13.9ZM92.8396 12.6C92.0896 12.6 91.473 12.3833 90.9896 11.95C90.523 11.5 90.2896 10.95 90.2896 10.3C90.2896 9.63333 90.523 9.08333 90.9896 8.65C91.473 8.2 92.0896 7.975 92.8396 7.975C93.573 7.975 94.173 8.2 94.6396 8.65C95.123 9.08333 95.3646 9.63333 95.3646 10.3C95.3646 10.95 95.123 11.5 94.6396 11.95C94.173 12.3833 93.573 12.6 92.8396 12.6ZM94.9646 14.05V28H90.6896V14.05H94.9646ZM105.838 24.375V28H103.663C102.113 28 100.904 27.625 100.038 26.875C99.171 26.1083 98.7377 24.8667 98.7377 23.15V17.6H97.0377V14.05H98.7377V10.65H103.013V14.05H105.813V17.6H103.013V23.2C103.013 23.6167 103.113 23.9167 103.313 24.1C103.513 24.2833 103.846 24.375 104.313 24.375H105.838ZM121.369 20.8C121.369 21.2 121.344 21.6167 121.294 22.05H111.619C111.686 22.9167 111.961 23.5833 112.444 24.05C112.944 24.5 113.552 24.725 114.269 24.725C115.336 24.725 116.077 24.275 116.494 23.375H121.044C120.811 24.2917 120.386 25.1167 119.769 25.85C119.169 26.5833 118.411 27.1583 117.494 27.575C116.577 27.9917 115.552 28.2 114.419 28.2C113.052 28.2 111.836 27.9083 110.769 27.325C109.702 26.7417 108.869 25.9083 108.269 24.825C107.669 23.7417 107.369 22.475 107.369 21.025C107.369 19.575 107.661 18.3083 108.244 17.225C108.844 16.1417 109.677 15.3083 110.744 14.725C111.811 14.1417 113.036 13.85 114.419 13.85C115.769 13.85 116.969 14.1333 118.019 14.7C119.069 15.2667 119.886 16.075 120.469 17.125C121.069 18.175 121.369 19.4 121.369 20.8ZM116.994 19.675C116.994 18.9417 116.744 18.3583 116.244 17.925C115.744 17.4917 115.119 17.275 114.369 17.275C113.652 17.275 113.044 17.4833 112.544 17.9C112.061 18.3167 111.761 18.9083 111.644 19.675H116.994ZM122.899 19.2C122.899 17.4667 123.274 15.925 124.024 14.575C124.774 13.2083 125.816 12.15 127.149 11.4C128.499 10.6333 130.024 10.25 131.724 10.25C133.808 10.25 135.591 10.8 137.074 11.9C138.558 13 139.549 14.5 140.049 16.4H135.349C134.999 15.6667 134.499 15.1083 133.849 14.725C133.216 14.3417 132.491 14.15 131.674 14.15C130.358 14.15 129.291 14.6083 128.474 15.525C127.658 16.4417 127.249 17.6667 127.249 19.2C127.249 20.7333 127.658 21.9583 128.474 22.875C129.291 23.7917 130.358 24.25 131.674 24.25C132.491 24.25 133.216 24.0583 133.849 23.675C134.499 23.2917 134.999 22.7333 135.349 22H140.049C139.549 23.9 138.558 25.4 137.074 26.5C135.591 27.5833 133.808 28.125 131.724 28.125C130.024 28.125 128.499 27.75 127.149 27C125.816 26.2333 124.774 25.175 124.024 23.825C123.274 22.475 122.899 20.9333 122.899 19.2ZM149.017 28.2C147.651 28.2 146.417 27.9083 145.317 27.325C144.234 26.7417 143.376 25.9083 142.742 24.825C142.126 23.7417 141.817 22.475 141.817 21.025C141.817 19.5917 142.134 18.3333 142.767 17.25C143.401 16.15 144.267 15.3083 145.367 14.725C146.467 14.1417 147.701 13.85 149.067 13.85C150.434 13.85 151.667 14.1417 152.767 14.725C153.867 15.3083 154.734 16.15 155.367 17.25C156.001 18.3333 156.317 19.5917 156.317 21.025C156.317 22.4583 155.992 23.725 155.342 24.825C154.709 25.9083 153.834 26.7417 152.717 27.325C151.617 27.9083 150.384 28.2 149.017 28.2ZM149.017 24.5C149.834 24.5 150.526 24.2 151.092 23.6C151.676 23 151.967 22.1417 151.967 21.025C151.967 19.9083 151.684 19.05 151.117 18.45C150.567 17.85 149.884 17.55 149.067 17.55C148.234 17.55 147.542 17.85 146.992 18.45C146.442 19.0333 146.167 19.8917 146.167 21.025C146.167 22.1417 146.434 23 146.967 23.6C147.517 24.2 148.201 24.5 149.017 24.5ZM172.481 21C172.481 19.5667 172.748 18.3083 173.281 17.225C173.831 16.1417 174.573 15.3083 175.506 14.725C176.44 14.1417 177.481 13.85 178.631 13.85C179.615 13.85 180.473 14.05 181.206 14.45C181.956 14.85 182.531 15.375 182.931 16.025V14.05H187.206V28H182.931V26.025C182.515 26.675 181.931 27.2 181.181 27.6C180.448 28 179.59 28.2 178.606 28.2C177.473 28.2 176.44 27.9083 175.506 27.325C174.573 26.725 173.831 25.8833 173.281 24.8C172.748 23.7 172.481 22.4333 172.481 21ZM182.931 21.025C182.931 19.9583 182.631 19.1167 182.031 18.5C181.448 17.8833 180.731 17.575 179.881 17.575C179.031 17.575 178.306 17.8833 177.706 18.5C177.123 19.1 176.831 19.9333 176.831 21C176.831 22.0667 177.123 22.9167 177.706 23.55C178.306 24.1667 179.031 24.475 179.881 24.475C180.731 24.475 181.448 24.1667 182.031 23.55C182.631 22.9333 182.931 22.0917 182.931 21.025ZM194.574 16.375C195.074 15.6083 195.699 15.0083 196.449 14.575C197.199 14.125 198.032 13.9 198.949 13.9V18.425H197.774C196.707 18.425 195.907 18.6583 195.374 19.125C194.841 19.575 194.574 20.375 194.574 21.525V28H190.299V14.05H194.574V16.375Z" fill="#37393F"/>
<path d="M162.86 9.5V28H158.585V9.5H162.86ZM170.233 9.5V28H165.958V9.5H170.233Z" fill="#6B77E5"/>
<path d="M14.3756 6H8.49649L25.2608 35L28.2003 29.9152L14.3756 6Z" fill="#40DDB6"/>
<path d="M5.8791 6H0L16.5506 34.6299L19.4084 29.4051L5.8791 6Z" fill="#40DDB6"/>
<path d="M32.5307 22.6948L36.3049 16.1629H30.4274L29.5911 17.61L25.433 10.4196H39.62L42.1706 6H17L29.5945 27.7863L32.5324 22.6981L32.5307 22.6948Z" fill="#6B77E5"/>
</svg>
